<svg xmlns="http://www.w3.org/2000/svg" width="281.059" height="281.059" viewBox="0 0 281.059 281.059">
  <g id="Group_9" data-name="Group 9" transform="translate(586.55 -571.509)">
    <g id="Group_1" data-name="Group 1" transform="translate(-586.55 571.509)">
      <circle id="Ellipse_1" data-name="Ellipse 1" cx="135.011" cy="135.011" r="135.011" transform="translate(5.519 5.518)" fill="#fff"/>
      <path id="Path_1" data-name="Path 1" d="M-446.021,577.027A135.011,135.011,0,0,1-311.01,712.038,135.011,135.011,0,0,1-446.021,847.049,135.011,135.011,0,0,1-581.032,712.038,135.011,135.011,0,0,1-446.021,577.027m0-5.518a139.658,139.658,0,0,0-54.7,11.046,140.053,140.053,0,0,0-44.667,30.114A140.055,140.055,0,0,0-575.5,657.336a139.655,139.655,0,0,0-11.046,54.7,139.656,139.656,0,0,0,11.046,54.7,140.054,140.054,0,0,0,30.114,44.667,140.048,140.048,0,0,0,44.667,30.114,139.656,139.656,0,0,0,54.7,11.046,139.653,139.653,0,0,0,54.7-11.046,140.044,140.044,0,0,0,44.667-30.114,140.057,140.057,0,0,0,30.115-44.667,139.655,139.655,0,0,0,11.046-54.7,139.654,139.654,0,0,0-11.046-54.7,140.058,140.058,0,0,0-30.115-44.667,140.049,140.049,0,0,0-44.667-30.114,139.656,139.656,0,0,0-54.7-11.046Z" transform="translate(586.55 -571.509)" fill="#1a1818"/>
    </g>
    <circle id="Ellipse_2" data-name="Ellipse 2" cx="132.518" cy="132.518" r="132.518" transform="translate(-578.538 579.52)" fill="#452380"/>
    <circle id="Ellipse_3" data-name="Ellipse 3" cx="94.044" cy="94.044" r="94.044" transform="translate(-537.494 616.112)" fill="#fff"/>
    <circle id="Ellipse_4" data-name="Ellipse 4" cx="90.359" cy="90.359" r="90.359" transform="translate(-533.858 619.798)" fill="#48a839"/>
    <path id="Path_2" data-name="Path 2" d="M-541.712,761.711l4.019,5.073,6.067-2.255-3.583,5.39,4.019,5.073-6.234-1.742-3.583,5.39-.27-6.467-6.234-1.742,6.067-2.255Z" transform="translate(-17.497 -85.242)" fill="#fff"/>
    <path id="Path_3" data-name="Path 3" d="M-138.889,761.711l4.019,5.073,6.067-2.255-3.583,5.39,4.019,5.073-6.234-1.742-3.583,5.39-.27-6.467-6.234-1.742,6.067-2.255Z" transform="translate(-198.029 -85.242)" fill="#fff"/>
    <g id="Group_3" data-name="Group 3" transform="translate(-552.632 593.862)">
      <g id="Group_2" data-name="Group 2" transform="translate(0)">
        <path id="Path_4" data-name="Path 4" d="M-525.085,721.618q.57-1.121,1.159-2.221l5.374,2.881.039-.072c-.2-.663-.359-1.311-.495-1.92q-.714-3.626-1.22-7.347.794-1.3,1.612-2.561.4,4.329,1.082,8.546a96.515,96.515,0,0,1,9.761-2.017q-.7,1.075-1.383,2.174-4.094.71-8.257,1.809.182,1.106.383,2.2l4.25,2.279q-.527.985-1.037,1.987Z" transform="translate(525.085 -656.098)" fill="#fff"/>
        <path id="Path_5" data-name="Path 5" d="M-499.757,703.894l-10.4-7.207q.75-1.1,1.52-2.171,4.313-.524,8.529-.68a25.6,25.6,0,0,1,5.078.28l.033-.068a43.582,43.582,0,0,1-4.128-3.174l-4.042-3.423q.709-.849,1.432-1.681l9.509,8.359q-.693.8-1.374,1.615-4.107-.087-8.331.173a53.286,53.286,0,0,1-5.348.155l-.032.077c1.373.821,2.621,1.691,4.326,2.921l4.385,3.163Q-499.183,703.055-499.757,703.894Z" transform="translate(518.393 -645.07)" fill="#fff"/>
        <path id="Path_6" data-name="Path 6" d="M-472.363,667.439c2.709,3.4,1.633,7.244-1.278,9.994-3.032,2.857-6.917,3.28-9.746.682-2.96-2.709-2.51-7.142.978-10.418C-478.819,664.344-474.712,664.495-472.363,667.439Zm-9.46,8.966a5.141,5.141,0,0,0,7.358-.028,5.16,5.16,0,0,0,.407-7.425c-1.62-1.938-4.718-2.818-7.5-.224C-484.325,671.343-483.808,674.5-481.823,676.405Z" transform="translate(507.275 -635.854)" fill="#fff"/>
        <path id="Path_7" data-name="Path 7" d="M-454.928,656.372q-5.32-3.964-10.975-7.581.937-.737,1.886-1.454,2.753,1.938,5.427,3.957c1.323.99,2.591,2.025,3.527,2.859l.039-.027a34.888,34.888,0,0,1-1.449-4.356q-.918-3.251-1.724-6.551.973-.644,1.956-1.268,2.612,2.15,5.136,4.377a34.544,34.544,0,0,1,3.2,3.139l.04-.024c-.434-1.36-.768-2.8-1.124-4.419q-.68-3.3-1.245-6.639.991-.548,1.989-1.076.836,6.723,2.16,13.289-.9.522-1.784,1.064-2.552-2.309-5.2-4.537a34.667,34.667,0,0,1-3.156-2.888l-.042.028a32.808,32.808,0,0,1,1.2,4.16q.859,3.393,1.841,6.731Q-454.079,655.755-454.928,656.372Z" transform="translate(498.562 -623.351)" fill="#fff"/>
        <path id="Path_8" data-name="Path 8" d="M-429.277,634.145q1-.5,2-.975l4.886,10.182q2.982-1.416,6.034-2.641l.518,1.271q-3.933,1.578-7.751,3.478Z" transform="translate(482.147 -621.496)" fill="#fff"/>
        <path id="Path_9" data-name="Path 9" d="M-397.982,627.2q-2.967.86-5.891,1.883.765,2.15,1.53,4.3,3.138-1.1,6.331-2l.38,1.317q-4.1,1.161-8.114,2.648L-408.21,623.5q4.305-1.6,8.708-2.857l.384,1.316q-3.3.945-6.551,2.083l1.342,3.769q2.958-1.036,5.961-1.906Z" transform="translate(472.706 -615.881)" fill="#fff"/>
        <path id="Path_10" data-name="Path 10" d="M-385.413,617.726a28.376,28.376,0,0,1,4.446-1.316c3.067-.644,5.372-.444,6.965.335a5.075,5.075,0,0,1,2.958,4.164,6.31,6.31,0,0,1-1.516,5.184c-1.257,1.389-3.427,2.392-6.287,3.012-1.377.3-2.5.511-3.479.659Zm4.7,10.376c.5-.058,1.21-.2,1.962-.36,4.117-.865,6.061-3.077,5.558-6.469-.412-2.94-2.913-4.543-7.4-3.617a14.146,14.146,0,0,0-2.429.71Z" transform="translate(462.489 -613.813)" fill="#fff"/>
        <path id="Path_11" data-name="Path 11" d="M-341.922,624.154a18.659,18.659,0,0,1-4.638.787,9.512,9.512,0,0,1-5.766-1.287,6.118,6.118,0,0,1-2.655-4.463c-.473-3.724,2.659-6.938,8.351-7.164a12.231,12.231,0,0,1,4.223.5q-.271.667-.536,1.335a9.67,9.67,0,0,0-3.684-.461c-4.073.158-6.524,2.351-6.2,5.5.329,3.2,2.8,4.836,6.343,4.691a8.18,8.18,0,0,0,2.612-.411q-.031-1.885-.063-3.77-1.593.026-3.186.1-.03-.656-.059-1.312,2.629-.115,5.262-.113Q-341.918,621.115-341.922,624.154Z" transform="translate(448.871 -612.015)" fill="#fff"/>
        <path id="Path_12" data-name="Path 12" d="M-316.356,619.527q-3.06-.322-6.133-.481-.121,2.276-.241,4.552,3.3.171,6.582.537l-.156,1.361q-4.218-.471-8.462-.614.219-6.319.439-12.638,4.552.154,9.087.646-.076.68-.151,1.361-3.4-.368-6.815-.545-.106,1.995-.211,3.99,3.107.161,6.205.486Z" transform="translate(435.308 -612.118)" fill="#fff"/>
        <path id="Path_13" data-name="Path 13" d="M-289.456,616.527q-1.333,6.184-2.664,12.368-.964-.2-1.93-.388l2.437-12.414Q-290.534,616.3-289.456,616.527Z" transform="translate(421.543 -613.843)" fill="#fff"/>
        <path id="Path_14" data-name="Path 14" d="M-283.586,629.607a8.347,8.347,0,0,0,3.192,1.7c1.936.549,3.328.075,3.723-1.142.354-1.1-.227-2.034-2.117-3.242-2.288-1.431-3.613-2.859-3.188-4.575.465-1.91,2.947-2.837,6.121-1.905a8.942,8.942,0,0,1,3.356,1.694q-.5.539-.988,1.081a7.26,7.26,0,0,0-2.829-1.5c-2.2-.641-3.311.151-3.532.981-.31,1.145.507,1.947,2.45,3.221,2.38,1.571,3.309,3,2.709,4.751-.645,1.854-2.806,2.886-6.213,1.919a9.777,9.777,0,0,1-3.523-1.776Q-284.009,630.207-283.586,629.607Z" transform="translate(417.229 -615.628)" fill="#fff"/>
        <path id="Path_15" data-name="Path 15" d="M-248.862,630.1a26.432,26.432,0,0,1,3.946,1.511,8.116,8.116,0,0,1,3.8,3.065,3.068,3.068,0,0,1,.047,3.025,3.366,3.366,0,0,1-2.4,1.791,8.434,8.434,0,0,1-5.025-.945,9.659,9.659,0,0,1-1.457-.8l-2.109,4.615q-.9-.4-1.8-.792Zm-.531,6.439a9.585,9.585,0,0,0,1.511.841c2.268,1.069,4.077.924,4.875-.594.786-1.495-.265-2.962-2.422-3.983a10.869,10.869,0,0,0-1.918-.742Z" transform="translate(403.528 -620.121)" fill="#fff"/>
        <path id="Path_16" data-name="Path 16" d="M-217.171,656.149c-2.672,3.428-6.653,3.277-9.911,1.132-3.388-2.237-4.559-5.856-2.682-9.21,1.96-3.5,6.22-4.165,10.11-1.587C-215.665,649.142-214.853,653.179-217.171,656.149Zm-10.656-6.993a5.064,5.064,0,0,0,1.579,7.077,5.106,5.106,0,0,0,7.229-1.375,4.922,4.922,0,0,0-1.439-7.3A4.921,4.921,0,0,0-227.827,649.156Z" transform="translate(393.132 -626.762)" fill="#fff"/>
        <path id="Path_17" data-name="Path 17" d="M-205.053,671.17q2.6-6.118,4.8-12.469.935.742,1.856,1.506-1.237,3.137-2.57,6.218c-.651,1.523-1.358,3-1.947,4.11l.035.031a34.133,34.133,0,0,1,3.912-2.4q2.96-1.632,6-3.16.872.819,1.731,1.659-1.463,3.065-3.019,6.064a33.966,33.966,0,0,1-2.285,3.875l.033.034c1.231-.726,2.568-1.368,4.074-2.069q3.083-1.383,6.24-2.654.8.884,1.58,1.787-6.438,2.237-12.581,4.965-.744-.787-1.5-1.556,1.631-3.044,3.163-6.159a33.653,33.653,0,0,1,2.054-3.765l-.038-.036a32.353,32.353,0,0,1-3.789,2.108q-3.118,1.6-6.147,3.317Q-204.247,671.862-205.053,671.17Z" transform="translate(381.657 -632.938)" fill="#fff"/>
        <path id="Path_18" data-name="Path 18" d="M-172.074,701.575q-1.947-2.79-4.023-5.417l-3.562,2.852q2.228,2.821,4.3,5.837l-1.125.784q-2.665-3.876-5.588-7.425l9.722-8.106q3.135,3.81,6.011,7.959l-1.121.787q-2.155-3.112-4.463-6.032l-3.122,2.5q2.1,2.659,4.071,5.482Z" transform="translate(371.356 -647.01)" fill="#fff"/>
        <path id="Path_19" data-name="Path 19" d="M-157.905,711.311a31.455,31.455,0,0,1,2.68,3.86c1.335,2.272,1.87,3.984,1.806,5.339a2.792,2.792,0,0,1-1.448,2.452c-1.47.753-3.155-.113-4.46-1.542l-.049.028a3.48,3.48,0,0,1-1,3.523,17.777,17.777,0,0,0-2.457,2.806q-.528-1.037-1.073-2.055a13.71,13.71,0,0,1,2.11-2.449c1.274-1.3,1.372-2.5.356-4.348q-.553-.94-1.12-1.864l-4.657,2.887q-.572-.933-1.159-1.848Zm-3.6,5.1q.622,1.014,1.228,2.047c1.26,2.153,2.854,3.123,4.129,2.437,1.435-.77,1.222-2.7-.086-4.926a13.894,13.894,0,0,0-1.348-1.99Z" transform="translate(365.22 -656.516)" fill="#fff"/>
      </g>
    </g>
    <g id="Group_5" data-name="Group 5" transform="translate(-527.809 623.988)">
      <g id="Group_4" data-name="Group 4" transform="translate(0 0)">
        <path id="Path_20" data-name="Path 20" d="M-469.409,798.451a9.03,9.03,0,0,1-2.329,3.2,4.518,4.518,0,0,1-3.108,1.154,4.131,4.131,0,0,1-3.01-1.46,8.619,8.619,0,0,1-1.892-3.88,14.818,14.818,0,0,1-.21-5.342,14.019,14.019,0,0,1,1.131-4.083,7.934,7.934,0,0,1,2-2.751q.415,1.208.86,2.4a7.5,7.5,0,0,0-2.106,4.564,9.777,9.777,0,0,0,.119,3.509,5.526,5.526,0,0,0,1.236,2.536,2.99,2.99,0,0,0,2.037,1.02,3.112,3.112,0,0,0,2.154-.659,5.589,5.589,0,0,0,1.634-2.083,9.862,9.862,0,0,0,.879-3.054,7.933,7.933,0,0,0-.647-4.676q.834-.843,1.68-1.635a8.865,8.865,0,0,1,.88,3.054,15.033,15.033,0,0,1-.068,3.714A15.265,15.265,0,0,1-469.409,798.451Z" transform="translate(480.103 -719.798)" fill="#1a1818"/>
        <path id="Path_21" data-name="Path 21" d="M-467.922,756.5a3.172,3.172,0,0,1,3.2.031l4.586,2.289q-.541,1.174-1.045,2.381l-4.414-2.014a2.014,2.014,0,0,0-1.892-.036,3.224,3.224,0,0,0-1.332,1.786,4.094,4.094,0,0,0-.206,2.649,2.385,2.385,0,0,0,1.579,1.572l4.231,1.543q-.416,1.283-.792,2.6l-11.762-3.809q.438-1.536.924-3.032l4.231,1.543a5.253,5.253,0,0,1-.2-2.028,8.462,8.462,0,0,1,.56-2.378A5.879,5.879,0,0,1-467.922,756.5Z" transform="translate(478.162 -706.707)" fill="#1a1818"/>
        <path id="Path_22" data-name="Path 22" d="M-450.633,730.939a3.163,3.163,0,0,1,3.078.67l4.158,3.227q-.7.919-1.372,1.868l-.883-.643a3.019,3.019,0,0,1-.012,1.6,6.522,6.522,0,0,1-.861,1.877,6.385,6.385,0,0,1-1.39,1.605,3.3,3.3,0,0,1-1.524.725,2.1,2.1,0,0,1-1.439-.263,2.239,2.239,0,0,1-1.107-1.979,6.37,6.37,0,0,1,1.255-3.46q.8-1.234,1.635-2.424l-.109-.079a1.614,1.614,0,0,0-1.583-.257,3.569,3.569,0,0,0-1.614,1.508,7.347,7.347,0,0,0-.834,1.768,5.145,5.145,0,0,0-.268,1.729q-.92.065-1.845.152a7.372,7.372,0,0,1,.434-2.383,11.3,11.3,0,0,1,1.245-2.521A6.311,6.311,0,0,1-450.633,730.939Zm3.755,5.693a2.212,2.212,0,0,0-.243-1.462l-.844-.612q-.77,1.094-1.5,2.225c-.819,1.267-.866,2.137-.2,2.558a1,1,0,0,0,1.054.013,3.021,3.021,0,0,0,1.1-1.108A4.058,4.058,0,0,0-446.877,736.632Z" transform="translate(469.008 -695.368)" fill="#1a1818"/>
        <path id="Path_23" data-name="Path 23" d="M-429.557,717.146a3.086,3.086,0,0,1-.438,1.029,5.6,5.6,0,0,1-.81.992,4.24,4.24,0,0,1-2.389,1.337,2.813,2.813,0,0,1-2.3-.834l-3.194-2.914q-.628.687-1.241,1.392l-1.268-1.1q.625-.72,1.266-1.421l-1.516-1.383q.933-1.02,1.9-2l1.471,1.43q1.077-1.1,2.194-2.142l1.162,1.216q-1.093,1.025-2.149,2.1l3.063,2.979a1.31,1.31,0,0,0,.981.432,1.582,1.582,0,0,0,1.012-.516,2.467,2.467,0,0,0,.734-1.214Q-430.317,716.827-429.557,717.146Z" transform="translate(462.779 -686.739)" fill="#1a1818"/>
        <path id="Path_24" data-name="Path 24" d="M-417.641,695.6a4.643,4.643,0,0,1,2.588.309,4.122,4.122,0,0,1,1.877,1.676,4.3,4.3,0,0,1,.673,2.389,4.545,4.545,0,0,1-.707,2.321,6.357,6.357,0,0,1-1.891,1.911,5.972,5.972,0,0,1-1.748.833,4.018,4.018,0,0,1-1.761.107l.715.912q-.9.677-1.782,1.386l-7.979-9.578q1.079-.867,2.185-1.7l2.821,3.613a4.187,4.187,0,0,1,.741-1.645,5.922,5.922,0,0,1,1.479-1.4A6.743,6.743,0,0,1-417.641,695.6Zm2.67,5.449a2.555,2.555,0,0,0-.383-2.156,2.556,2.556,0,0,0-1.89-1.2,3.444,3.444,0,0,0-2.394.661,3.725,3.725,0,0,0-1.171,1.239,2.64,2.64,0,0,0-.353,1.471,2.519,2.519,0,0,0,.566,1.421,2.721,2.721,0,0,0,1.242.917,2.915,2.915,0,0,0,1.5.124,3.741,3.741,0,0,0,1.49-.624A3.247,3.247,0,0,0-414.97,701.051Z" transform="translate(456.599 -679.576)" fill="#1a1818"/>
        <path id="Path_25" data-name="Path 25" d="M-391.027,692.268a5.21,5.21,0,0,1-2.5-.6A4.293,4.293,0,0,1-395.3,689.9a3.761,3.761,0,0,1-.459-2.407,4.528,4.528,0,0,1,1.156-2.353,7.008,7.008,0,0,1,2.558-1.771,7.294,7.294,0,0,1,3.106-.612,4.916,4.916,0,0,1,2.579.78,3.923,3.923,0,0,1,1.528,1.956,4.07,4.07,0,0,1,.152,2.439,4.777,4.777,0,0,1-1.23,2.175,6.844,6.844,0,0,1-2.347,1.565A7.046,7.046,0,0,1-391.027,692.268Zm3.772-3.743a2.514,2.514,0,0,0,.056-2.179,2.534,2.534,0,0,0-1.624-1.538,3.5,3.5,0,0,0-2.484.177,3.288,3.288,0,0,0-1.812,1.631,2.4,2.4,0,0,0,.084,2.186,2.693,2.693,0,0,0,1.7,1.441,3.4,3.4,0,0,0,2.342-.187A3.264,3.264,0,0,0-387.255,688.525Z" transform="translate(442.319 -673.846)" fill="#1a1818"/>
        <path id="Path_26" data-name="Path 26" d="M-362.374,681.883a3.016,3.016,0,0,1-.9.636,5.464,5.464,0,0,1-1.194.408,4.173,4.173,0,0,1-2.7-.137,2.852,2.852,0,0,1-1.517-1.9l-1.213-4.1q-.88.237-1.753.492-.254-.792-.508-1.584.891-.26,1.788-.5l-.576-1.943q1.305-.352,2.622-.664l.514,1.96q1.469-.349,2.951-.648.18.809.361,1.62-1.452.293-2.892.635l1.069,4.08a1.314,1.314,0,0,0,.609.872,1.565,1.565,0,0,0,1.12.1,2.4,2.4,0,0,0,1.243-.635Q-362.856,681.224-362.374,681.883Z" transform="translate(431.726 -669.289)" fill="#1a1818"/>
        <path id="Path_27" data-name="Path 27" d="M-349.211,678.864q2.763-.4,5.55-.63l.155,1.716q-2.724.222-5.43.616Q-349.073,679.715-349.211,678.864Z" transform="translate(421.442 -671.819)" fill="#1a1818"/>
        <path id="Path_28" data-name="Path 28" d="M-318.755,676.847q-.1.9-.208,1.793a82.129,82.129,0,0,0-9.92-.432q-.108-5.793-.218-11.587a95.041,95.041,0,0,1,11.17.469l-.2,1.794q-4.06-.411-8.148-.464-.021,1.507-.044,3.014,3.491.044,6.972.362l-.179,1.763q-3.4-.31-6.818-.354-.023,1.6-.046,3.2Q-322.567,676.45-318.755,676.847Z" transform="translate(412.429 -666.609)" fill="#1a1818"/>
        <path id="Path_29" data-name="Path 29" d="M-299.563,667.7q1.359.227,2.711.493l-2.622,12.029q-1.159-.228-2.324-.423Q-300.681,673.746-299.563,667.7Z" transform="translate(400.193 -667.096)" fill="#1a1818"/>
        <path id="Path_30" data-name="Path 30" d="M-277.128,686.069a80.63,80.63,0,0,0-7.838-2.728,2.373,2.373,0,0,0,.6,1.8,4.211,4.211,0,0,0,1.936,1.227,4.45,4.45,0,0,0,3,.047q.367.824.71,1.651a4.785,4.785,0,0,1-2.036.378,7.8,7.8,0,0,1-2.338-.439,7.522,7.522,0,0,1-2.6-1.434,4.745,4.745,0,0,1-1.431-2.088,4.059,4.059,0,0,1-.04-2.442,3.971,3.971,0,0,1,1.349-2.058,4.769,4.769,0,0,1,2.451-.994,6.924,6.924,0,0,1,3.044.343,6.526,6.526,0,0,1,2.567,1.51,4.257,4.257,0,0,1,1.239,2.207,4.022,4.022,0,0,1-.318,2.469Q-276.929,685.717-277.128,686.069Zm-5.961-5.248a2.417,2.417,0,0,0-1.475,1.2q2.935.856,5.8,1.925a2.214,2.214,0,0,0-.355-1.8A3.341,3.341,0,0,0-280.9,680.9,3.531,3.531,0,0,0-283.09,680.82Z" transform="translate(393.714 -672.137)" fill="#1a1818"/>
        <path id="Path_31" data-name="Path 31" d="M-253.226,692.151a3.148,3.148,0,0,1-.476,3.066l-2.915,4.363q-.942-.6-1.9-1.161l.577-.923a2.935,2.935,0,0,1-1.548.141,5.914,5.914,0,0,1-1.851-.662,5.592,5.592,0,0,1-1.6-1.206,3.021,3.021,0,0,1-.748-1.421,2.157,2.157,0,0,1,.195-1.43,2.266,2.266,0,0,1,1.833-1.264,5.816,5.816,0,0,1,3.363.9q1.225.661,2.428,1.365l.071-.114a1.607,1.607,0,0,0,.165-1.568,3.274,3.274,0,0,0-1.537-1.431,6.694,6.694,0,0,0-1.733-.647,4.736,4.736,0,0,0-1.66-.1q-.1-.892-.215-1.788a6.728,6.728,0,0,1,2.282.2,10.417,10.417,0,0,1,2.474.977A5.876,5.876,0,0,1-253.226,692.151Zm-5.332,4.2a2.207,2.207,0,0,0,1.406-.376l.55-.881q-1.1-.647-2.229-1.256c-1.258-.679-2.088-.645-2.463.05a1,1,0,0,0,.033,1.03,2.7,2.7,0,0,0,1.112.965A3.718,3.718,0,0,0-258.559,696.356Z" transform="translate(383.132 -676.305)" fill="#1a1818"/>
        <path id="Path_32" data-name="Path 32" d="M-231.978,705.688l-1.35,1.477a3.894,3.894,0,0,0-.419-.438,3.456,3.456,0,0,0-2.274-.993,2.551,2.551,0,0,0-1.973,1.049l-2.782,3.345q-.925-.743-1.875-1.452l5.513-7.071q1.011.756,2,1.546l-.836,1.009C-234.788,703.905-233.428,704.4-231.978,705.688Z" transform="translate(373.685 -682.292)" fill="#1a1818"/>
        <path id="Path_33" data-name="Path 33" d="M-216.188,723.672a3.416,3.416,0,0,1-1.587,2.815l-4.145,3.048q-.716-1-1.465-1.967l3.833-3.016a2.194,2.194,0,0,0,.962-1.651,2.911,2.911,0,0,0-.8-1.931,3.351,3.351,0,0,0-2.034-1.289,2.431,2.431,0,0,0-2.05.728l-3.36,3.057q-.813-.892-1.654-1.749l6.448-6.254q.9.914,1.764,1.862l-.858.783a4.066,4.066,0,0,1,1.818.619,6.968,6.968,0,0,1,1.731,1.549A5.412,5.412,0,0,1-216.188,723.672Z" transform="translate(367.337 -688.503)" fill="#1a1818"/>
        <path id="Path_34" data-name="Path 34" d="M-201.658,738.652a1.1,1.1,0,0,1,.49-.933,1.022,1.022,0,0,1,1.036-.015,2.26,2.26,0,0,1,.982.973,2.452,2.452,0,0,1,.36,1.354,1.029,1.029,0,0,1-.49.908,1.092,1.092,0,0,1-1.057,0,2.218,2.218,0,0,1-.971-.967A2.37,2.37,0,0,1-201.658,738.652Zm-1.631.854q.718,1.209,1.4,2.455l-7.757,4.482q-.606-1.113-1.247-2.192Z" transform="translate(359.454 -698.412)" fill="#1a1818"/>
        <path id="Path_35" data-name="Path 35" d="M-192.877,767.265a3.328,3.328,0,0,1-2.4,2.275l-4.879,1.467q-.351-1.336-.744-2.638l4.575-1.562a2.126,2.126,0,0,0,1.436-1.314,3.562,3.562,0,0,0-.134-2.309,3.838,3.838,0,0,0-1.5-2.127,2.231,2.231,0,0,0-2.164-.065l-4.143,1.792q-.482-1.227-1-2.42l8.074-3.834q.555,1.271,1.07,2.578l-1.058.46a4.361,4.361,0,0,1,1.515,1.349,8.236,8.236,0,0,1,1.135,2.277A6.662,6.662,0,0,1-192.877,767.265Z" transform="translate(356.289 -706.909)" fill="#1a1818"/>
        <path id="Path_36" data-name="Path 36" d="M-186.634,805.145l-7.5.236c-3.129.076-4.678-2.22-5.128-6.547a20.043,20.043,0,0,1-.1-3.316,9.121,9.121,0,0,1,.507-2.691q.875.453,1.745.939a8.033,8.033,0,0,0-.453,2.148,12.582,12.582,0,0,0,.025,2.537,5.866,5.866,0,0,0,.939,2.967,2.279,2.279,0,0,0,2.083.838l.462-.034a6.061,6.061,0,0,1-1.018-1.845,10.549,10.549,0,0,1-.535-2.394,10.509,10.509,0,0,1,.108-3.32,5.989,5.989,0,0,1,1.119-2.553,3.493,3.493,0,0,1,2.038-1.309,3.062,3.062,0,0,1,2.343.4,5.257,5.257,0,0,1,1.876,2.16,10.134,10.134,0,0,1,.995,3.5,10.691,10.691,0,0,1-.036,2.854,5.667,5.667,0,0,1-.8,2.223l1.173-.083Q-186.687,803.482-186.634,805.145Zm-6.211-4.117a2.112,2.112,0,0,0,1.905,1.018,2.051,2.051,0,0,0,1.716-1.335,5.79,5.79,0,0,0,.413-3.126,5.439,5.439,0,0,0-1.06-2.912,1.965,1.965,0,0,0-1.947-.826,2.209,2.209,0,0,0-1.645,1.416,5.657,5.657,0,0,0-.345,2.952A5.731,5.731,0,0,0-192.845,801.028Z" transform="translate(354.295 -722.231)" fill="#1a1818"/>
      </g>
    </g>
    <g id="Group_7" data-name="Group 7" transform="translate(-563.618 707.273)">
      <g id="Group_6" data-name="Group 6" transform="translate(0 0)">
        <path id="Path_37" data-name="Path 37" d="M-544.336,819.339a4.787,4.787,0,0,1,1.067-1.807q.383.277.767.55a4.777,4.777,0,0,0-.986,1.638,6.954,6.954,0,0,0-.455,2.162,4.293,4.293,0,0,0,.393,2.355,1.428,1.428,0,0,0,1.25.789,1.213,1.213,0,0,0,.964-.4,2.972,2.972,0,0,0,.581-1c.142-.4.3-.945.487-1.652a17.477,17.477,0,0,1,.655-2.018,3.346,3.346,0,0,1,.884-1.257,1.948,1.948,0,0,1,1.493-.439,2.3,2.3,0,0,1,1.331.539,3.059,3.059,0,0,1,.9,1.409,6.19,6.19,0,0,1,.258,2.245,7.366,7.366,0,0,1-.3,1.8,5.618,5.618,0,0,1-.681,1.515c-.278-.127-.555-.257-.832-.387a5.879,5.879,0,0,0,.656-1.443,6.175,6.175,0,0,0,.26-1.511,3.919,3.919,0,0,0-.4-2.184,1.521,1.521,0,0,0-1.249-.81,1.212,1.212,0,0,0-.981.351,2.739,2.739,0,0,0-.611,1c-.15.406-.319.955-.5,1.645-.216.816-.415,1.475-.6,1.978a3.439,3.439,0,0,1-.829,1.278,2,2,0,0,1-1.455.525,2.184,2.184,0,0,1-1.365-.471,2.972,2.972,0,0,1-.941-1.457,6.683,6.683,0,0,1-.263-2.437A8.526,8.526,0,0,1-544.336,819.339Z" transform="translate(544.929 -817.532)" fill="#fff"/>
        <path id="Path_38" data-name="Path 38" d="M-535.011,836.834q0,.555.007,1.107-4.992.155-9.989.277,0-.6,0-1.209Q-540,836.938-535.011,836.834Z" transform="translate(544.994 -826.182)" fill="#fff"/>
        <path id="Path_39" data-name="Path 39" d="M-544.465,852.27q1.5-1.43,3.028-2.809a7.751,7.751,0,0,1-.1-.855q-.09-1.445-.147-2.909-1.588.1-3.176.2-.022-.592-.039-1.187,5.006-.257,10-.549.066,1.929.193,3.823a4.85,4.85,0,0,1-.675,3.123,3.264,3.264,0,0,1-2.409,1.415,3.089,3.089,0,0,1-2.04-.363,3.241,3.241,0,0,1-1.319-1.652q-1.616,1.482-3.205,3.02Q-544.41,852.9-544.465,852.27Zm4.66-1.437a2.159,2.159,0,0,0,1.916.6,2.373,2.373,0,0,0,1.794-1.02,3.759,3.759,0,0,0,.477-2.379q-.089-1.356-.148-2.729-2.507.17-5.017.331.057,1.437.146,2.855A3.6,3.6,0,0,0-539.805,850.833Z" transform="translate(544.951 -829.466)" fill="#fff"/>
        <path id="Path_40" data-name="Path 40" d="M-542.1,870.2a4.217,4.217,0,0,1,.705-1.817q.436.15.874.3a4.233,4.233,0,0,0-.658,1.653,5.531,5.531,0,0,0-.022,1.985,3.408,3.408,0,0,0,.863,1.959,1.484,1.484,0,0,0,1.4.395,1.348,1.348,0,0,0,.88-.577,2.64,2.64,0,0,0,.379-1.007c.062-.379.113-.9.156-1.553a14.236,14.236,0,0,1,.252-1.908,3.048,3.048,0,0,1,.631-1.3,2.219,2.219,0,0,1,1.4-.733,2.538,2.538,0,0,1,1.433.153,2.677,2.677,0,0,1,1.173,1.009,4.83,4.83,0,0,1,.7,1.89,5.882,5.882,0,0,1,.062,1.636,4.827,4.827,0,0,1-.376,1.484q-.452-.07-.9-.142a5.017,5.017,0,0,0,.365-1.414,4.915,4.915,0,0,0-.041-1.377,3.093,3.093,0,0,0-.826-1.805,1.574,1.574,0,0,0-1.4-.408,1.362,1.362,0,0,0-.907.537,2.437,2.437,0,0,0-.411,1.012,14.7,14.7,0,0,0-.171,1.548,17.368,17.368,0,0,1-.208,1.867,3.112,3.112,0,0,1-.569,1.311,2.244,2.244,0,0,1-1.344.8,2.425,2.425,0,0,1-1.453-.089,2.642,2.642,0,0,1-1.229-1.051,5.25,5.25,0,0,1-.749-2.061A6.758,6.758,0,0,1-542.1,870.2Z" transform="translate(543.739 -839.948)" fill="#fff"/>
        <path id="Path_41" data-name="Path 41" d="M-535.221,885.693q-1.7.48-3.409.956-.132-.517-.259-1.035,1.708-.46,3.414-.925,2.751-2.809,5.6-5.449.111.525.228,1.046-2.421,2.28-4.774,4.686,3.183.867,6.373,1.529.137.47.278.936Q-531.5,886.7-535.221,885.693Z" transform="translate(542.259 -845.188)" fill="#fff"/>
        <path id="Path_42" data-name="Path 42" d="M-532.759,905.206l-.879.343q-1.249-3.256-2.294-6.652,4.889-1.587,9.756-3.2.943,3.01,2.061,5.9l-.875.346q-.952-2.463-1.779-5.015-1.729.589-3.459,1.176.757,2.351,1.617,4.629l-.865.334q-.866-2.3-1.628-4.667-1.808.611-3.619,1.218Q-533.816,902.459-532.759,905.206Z" transform="translate(540.933 -852.561)" fill="#fff"/>
        <path id="Path_43" data-name="Path 43" d="M-520.891,909.818q.7,1.69,1.452,3.335a4.9,4.9,0,0,1,.475,2.529,4.569,4.569,0,0,1-.885,2.316,5.78,5.78,0,0,1-2.117,1.749,5.535,5.535,0,0,1-2.689.645,4.457,4.457,0,0,1-2.453-.806,5.178,5.178,0,0,1-1.75-2.173q-.818-1.8-1.571-3.653Q-525.646,911.8-520.891,909.818Zm-7.126,7.158a4.211,4.211,0,0,0,1.426,1.776,3.659,3.659,0,0,0,1.985.656,4.561,4.561,0,0,0,2.2-.515,4.718,4.718,0,0,0,1.745-1.414,3.737,3.737,0,0,0,.733-1.885,4.022,4.022,0,0,0-.391-2.094q-.552-1.206-1.073-2.436-3.876,1.655-7.77,3.29Q-528.606,915.677-528.017,916.976Z" transform="translate(538.466 -858.891)" fill="#fff"/>
        <path id="Path_44" data-name="Path 44" d="M-516.642,936.16a4.781,4.781,0,0,1,2.42-2.515q2.6-1.444,5.181-2.9.234.4.472.792-2.554,1.463-5.119,2.918a4.059,4.059,0,0,0-1.967,1.961,2.49,2.49,0,0,0,.362,2.26,2.644,2.644,0,0,0,1.933,1.329,4.247,4.247,0,0,0,2.693-.834q2.493-1.577,4.975-3.163.252.367.507.731-2.488,1.617-4.987,3.227a5.05,5.05,0,0,1-3.406.987,3.6,3.6,0,0,1-2.557-1.776A3.436,3.436,0,0,1-516.642,936.16Z" transform="translate(532.359 -868.272)" fill="#fff"/>
        <path id="Path_45" data-name="Path 45" d="M-495.723,950.7q-4.079,3.186-8.191,6.35-.267-.309-.532-.62,1.4-4.84,3.168-9.481-3.46,2.392-6.94,4.767-.3-.4-.594-.8,4.314-2.892,8.6-5.809.224.3.449.6-1.79,4.6-3.223,9.417,3.352-2.544,6.684-5.1Q-496.016,950.358-495.723,950.7Z" transform="translate(528.779 -874.706)" fill="#fff"/>
        <path id="Path_46" data-name="Path 46" d="M-488.7,958.507q.306.333.615.663-3.977,3.306-7.988,6.591-.337-.362-.67-.727Q-492.707,961.781-488.7,958.507Z" transform="translate(523.371 -880.712)" fill="#fff"/>
        <path id="Path_47" data-name="Path 47" d="M-477.82,966.819q-5.086,2.38-10.416,4.437-.353-.335-.7-.675,2.371-4.892,5.013-9.6.337.353.678.7-2.259,4.1-4.316,8.34,4.619-1.779,9.059-3.808Q-478.164,966.518-477.82,966.819Z" transform="translate(519.872 -881.82)" fill="#fff"/>
        <path id="Path_48" data-name="Path 48" d="M-475.056,983.339l-.63.7q-2.638-2-5.144-4.162,3.665-3.635,7.3-7.286,2.22,1.906,4.555,3.679l-.625.7q-1.991-1.512-3.9-3.123-1.282,1.309-2.568,2.615,1.759,1.485,3.586,2.89l-.621.685q-1.841-1.417-3.615-2.914-1.344,1.363-2.693,2.725Q-477.283,981.649-475.056,983.339Z" transform="translate(516.238 -887.024)" fill="#fff"/>
        <path id="Path_49" data-name="Path 49" d="M-463.425,992.751q.109-1.881.278-3.745a5.6,5.6,0,0,1-.632-.375q-1.012-.691-2.008-1.4-1.057,1.238-2.117,2.475-.4-.289-.8-.582,3.377-3.873,6.722-7.762,1.294.943,2.619,1.845a3.337,3.337,0,0,1,1.572,2.16,3.236,3.236,0,0,1-.762,2.552,3.848,3.848,0,0,1-1.676,1.323,3.3,3.3,0,0,1-2.021.1q-.161,1.989-.256,4Q-462.968,993.046-463.425,992.751Zm2.333-4.235a2.662,2.662,0,0,0,1.748-1.105,2.369,2.369,0,0,0,.592-1.88,2.578,2.578,0,0,0-1.223-1.615q-.949-.646-1.881-1.313-1.661,1.962-3.33,3.92.976.7,1.969,1.378A3.022,3.022,0,0,0-461.092,988.516Z" transform="translate(510.805 -890.953)" fill="#fff"/>
        <path id="Path_50" data-name="Path 50" d="M-454.054,998.7a3.114,3.114,0,0,1-.685-1.545q.414-.231.825-.464a3.125,3.125,0,0,0,.613,1.419,4.191,4.191,0,0,0,1.3,1.159,3.113,3.113,0,0,0,1.923.518,1.742,1.742,0,0,0,1.274-.777,1.288,1.288,0,0,0,.251-.97,2.013,2.013,0,0,0-.4-.861,12.643,12.643,0,0,0-.914-1.015,10.474,10.474,0,0,1-1.075-1.281,2.3,2.3,0,0,1-.4-1.2,2.241,2.241,0,0,1,.533-1.43,3.09,3.09,0,0,1,1.134-.949,2.906,2.906,0,0,1,1.506-.269,4.109,4.109,0,0,1,1.745.587,4.476,4.476,0,0,1,1.121.909,3.655,3.655,0,0,1,.711,1.143q-.372.284-.746.566a3.811,3.811,0,0,0-.673-1.092,3.746,3.746,0,0,0-.937-.773,2.744,2.744,0,0,0-1.781-.448,1.882,1.882,0,0,0-1.28.78,1.342,1.342,0,0,0-.3.963,1.829,1.829,0,0,0,.368.878,11.04,11.04,0,0,0,.9,1.018,12.991,12.991,0,0,1,1.085,1.238,2.417,2.417,0,0,1,.461,1.179,2.182,2.182,0,0,1-.434,1.437,2.839,2.839,0,0,1-1.108.99,2.9,2.9,0,0,1-1.587.266,4.641,4.641,0,0,1-1.909-.659A5.145,5.145,0,0,1-454.054,998.7Z" transform="translate(504.545 -895.287)" fill="#fff"/>
        <path id="Path_51" data-name="Path 51" d="M-436.806,996.269q.4.209.811.417-2.67,4.313-5.369,8.618-.445-.228-.889-.458Q-439.516,1000.562-436.806,996.269Z" transform="translate(498.949 -897.636)" fill="#fff"/>
        <path id="Path_52" data-name="Path 52" d="M-428.714,1000.022q-1.392-.643-2.764-1.323l.48-.793q3.127,1.551,6.364,2.907l-.424.819q-1.418-.594-2.817-1.227-2.229,4.016-4.48,8.027-.458-.208-.913-.418Q-430.98,1004.021-428.714,1000.022Z" transform="translate(494.922 -898.37)" fill="#fff"/>
        <path id="Path_53" data-name="Path 53" d="M-417.922,1010.5q-.743,1.573-1.489,3.146-.466-.177-.93-.357.761-1.567,1.519-3.135-.291-3.636-.36-7.242.45.191.9.378.09,3.09.341,6.2,2.686-1.988,5.228-4.074c.289.1.579.2.87.3Q-414.783,1008.177-417.922,1010.5Z" transform="translate(489.129 -900.614)" fill="#fff"/>
        <path id="Path_54" data-name="Path 54" d="M-402.4,1020.151a4.093,4.093,0,0,1-1.062-2.221,5.029,5.029,0,0,1,.35-2.614,5.889,5.889,0,0,1,1.535-2.244,5.293,5.293,0,0,1,2.245-1.223,4.75,4.75,0,0,1,2.5.018,4.306,4.306,0,0,1,2.072,1.219,4.413,4.413,0,0,1,1.091,2.135,5.316,5.316,0,0,1-.131,2.634,5.388,5.388,0,0,1-1.364,2.345,4.955,4.955,0,0,1-2.274,1.312,5.125,5.125,0,0,1-2.7-.031A4.679,4.679,0,0,1-402.4,1020.151Zm4.713.454a3.991,3.991,0,0,0,1.823-1.069,4.529,4.529,0,0,0,1.111-1.9,4.407,4.407,0,0,0,.137-2.14,3.5,3.5,0,0,0-.858-1.74,3.424,3.424,0,0,0-1.668-.993,3.8,3.8,0,0,0-2.01-.01,4.26,4.26,0,0,0-1.813,1.011,4.811,4.811,0,0,0-1.234,1.84,4.165,4.165,0,0,0-.271,2.133,3.328,3.328,0,0,0,.849,1.8,3.687,3.687,0,0,0,1.791,1.059A4.03,4.03,0,0,0-397.688,1020.6Z" transform="translate(481.586 -904.548)" fill="#fff"/>
        <path id="Path_55" data-name="Path 55" d="M-381.842,1015.945q-.5,1.891-1,3.781,2.332.488,4.685.892l-.194.887q-2.372-.406-4.725-.9-.542,2.041-1.087,4.082-.5-.1-1-.213,1.329-4.8,2.644-9.6,2.944.64,5.927,1.137l-.188.888Q-379.323,1016.472-381.842,1015.945Z" transform="translate(473.363 -905.973)" fill="#fff"/>
        <path id="Path_56" data-name="Path 56" d="M-357.636,1027.721l-.093.9q-3.424-.275-6.826-.718.816-4.891,1.623-9.784,3,.391,6.023.637-.046.45-.093.9-2.578-.211-5.144-.525-.271,1.743-.544,3.485,2.367.291,4.745.495l-.1.886q-2.4-.208-4.784-.5-.285,1.82-.57,3.639Q-360.525,1027.489-357.636,1027.721Z" transform="translate(464.127 -907.429)" fill="#fff"/>
        <path id="Path_57" data-name="Path 57" d="M-340.355,1019.814q-.049,4.945-.1,9.89l-.848-.009q-3.054-4.055-5.648-8.233-.3,4-.6,8.007-.512-.03-1.025-.064.417-4.931.829-9.862l.769.048q2.54,4.173,5.543,8.236.077-4.011.153-8.024Q-340.816,1019.811-340.355,1019.814Z" transform="translate(456.964 -908.067)" fill="#fff"/>
        <path id="Path_58" data-name="Path 58" d="M-323.146,1024.574q.47-.028.94-.06.163,1.88.327,3.761a4.4,4.4,0,0,1-1.523,1.03,5.6,5.6,0,0,1-1.934.421,5.129,5.129,0,0,1-2.645-.563,4.562,4.562,0,0,1-1.848-1.771,5.085,5.085,0,0,1-.672-2.573,5.411,5.411,0,0,1,.6-2.584,4.751,4.751,0,0,1,1.653-1.83,4.668,4.668,0,0,1,2.379-.728,4.886,4.886,0,0,1,1.88.268,3.934,3.934,0,0,1,1.52.973q-.265.351-.534.7a3.664,3.664,0,0,0-2.778-1.012,3.791,3.791,0,0,0-1.937.6,3.815,3.815,0,0,0-1.346,1.5,4.371,4.371,0,0,0-.472,2.105,4.138,4.138,0,0,0,.562,2.083,3.805,3.805,0,0,0,1.5,1.437,4.052,4.052,0,0,0,2.126.462,3.935,3.935,0,0,0,2.459-.891Q-323.016,1026.237-323.146,1024.574Z" transform="translate(448.866 -908.124)" fill="#fff"/>
        <path id="Path_59" data-name="Path 59" d="M-312.157,1019.129q.466-.04.931-.083.582,4.919,1.17,9.835-.512.048-1.023.092Q-311.621,1024.051-312.157,1019.129Z" transform="translate(440.644 -907.844)" fill="#fff"/>
        <path id="Path_60" data-name="Path 60" d="M-298.669,1016.691q1.062,4.853,2.136,9.7-.416.073-.832.142-3.91-3.429-7.391-7.062.608,3.975,1.224,7.95c-.339.041-.679.081-1.019.119q-.711-4.9-1.415-9.809l.764-.089q3.425,3.639,7.285,7.085-.833-3.943-1.658-7.887Q-299.121,1016.77-298.669,1016.691Z" transform="translate(437.869 -906.788)" fill="#fff"/>
        <path id="Path_61" data-name="Path 61" d="M-279.534,1022.144q.137.435.274.871-3.308.819-6.665,1.471-1.2-4.828-2.378-9.659,2.963-.574,5.886-1.292l.269.871q-2.494.613-5.018,1.122.436,1.715.875,3.43,2.328-.469,4.632-1.025l.261.858q-2.323.561-4.671,1.035.459,1.79.919,3.581Q-282.325,1022.834-279.534,1022.144Z" transform="translate(429.954 -905.374)" fill="#fff"/>
        <path id="Path_62" data-name="Path 62" d="M-264.814,1018.015q.171.425.343.851-3.23,1.034-6.523,1.9-1.582-4.738-3.147-9.48,2.906-.765,5.762-1.672.168.427.338.852-2.436.774-4.91,1.445.573,1.682,1.148,3.365,2.282-.62,4.533-1.324l.329.839q-2.269.71-4.571,1.335.6,1.756,1.2,3.512Q-267.539,1018.887-264.814,1018.015Z" transform="translate(423.607 -903.618)" fill="#fff"/>
        <path id="Path_63" data-name="Path 63" d="M-250.259,1014.37q-1.731-1.051-3.41-2.145a5.767,5.767,0,0,1-.678.3q-1.17.43-2.35.839.632,1.462,1.268,2.923-.478.166-.959.327-1.958-4.622-3.9-9.25,1.547-.521,3.076-1.083a4,4,0,0,1,2.842-.1,3.682,3.682,0,0,1,2.016,1.914,3.3,3.3,0,0,1,.392,1.986,2.648,2.648,0,0,1-.936,1.623q1.8,1.152,3.66,2.258Q-249.746,1014.167-250.259,1014.37Zm-2.823-3.995a2.208,2.208,0,0,0-.148-1.93,2.679,2.679,0,0,0-1.471-1.435,3.073,3.073,0,0,0-2.148.114q-1.1.4-2.2.784.993,2.313,1.993,4.624,1.159-.4,2.307-.823A2.722,2.722,0,0,0-253.082,1010.375Z" transform="translate(417.397 -901.981)" fill="#fff"/>
        <path id="Path_64" data-name="Path 64" d="M-245.692,1002.684q.423-.179.843-.36,2.37,4.458,4.765,8.91-.462.2-.925.4Q-243.363,1007.161-245.692,1002.684Z" transform="translate(410.857 -900.35)" fill="#fff"/>
        <path id="Path_65" data-name="Path 65" d="M-233.653,994.684q2.789,4.251,5.606,8.49-.362.2-.725.39-4.941-2.023-9.556-4.389,2.047,3.561,4.111,7.116-.454.214-.911.423-2.5-4.4-4.981-8.81l.684-.316q4.563,2.387,9.461,4.444-2.251-3.459-4.482-6.924Z" transform="translate(408.355 -896.926)" fill="#fff"/>
        <path id="Path_66" data-name="Path 66" d="M-215.275,991.209q.382-.249.761-.5,1.216,1.527,2.436,3.054a3.823,3.823,0,0,1-.7,1.607,4.9,4.9,0,0,1-1.394,1.28,4.988,4.988,0,0,1-2.567.776,5.158,5.158,0,0,1-2.59-.637,5.807,5.807,0,0,1-2.051-1.88,5.517,5.517,0,0,1-.971-2.49,4.246,4.246,0,0,1,.359-2.345,4.1,4.1,0,0,1,1.605-1.751,4.732,4.732,0,0,1,1.749-.667,4.255,4.255,0,0,1,1.846.1q-.025.427-.052.855a3.731,3.731,0,0,0-2.936.46,3.336,3.336,0,0,0-1.3,1.43,3.425,3.425,0,0,0-.285,1.918,4.483,4.483,0,0,0,.807,2.021,4.74,4.74,0,0,0,1.675,1.512,4.289,4.289,0,0,0,2.1.517,3.956,3.956,0,0,0,2.069-.615,3.417,3.417,0,0,0,1.57-1.933Q-214.212,992.568-215.275,991.209Z" transform="translate(400.41 -893.75)" fill="#fff"/>
        <path id="Path_67" data-name="Path 67" d="M-193.444,982.786q-1.015-.107-2.021-.23a3.454,3.454,0,0,1-1.477,2.958,3.9,3.9,0,0,1-1.514.74,2.912,2.912,0,0,1-1.505-.033,2.531,2.531,0,0,1-1.209-.792,2.644,2.644,0,0,1-.668-1.559,5.985,5.985,0,0,1,.376-2.2,6.469,6.469,0,0,1-1.561-.445,2.883,2.883,0,0,1-.941-.711,2.022,2.022,0,0,1-.571-1.544,1.989,1.989,0,0,1,.852-1.406,2.147,2.147,0,0,1,1.511-.5,2.208,2.208,0,0,1,1.45.75,2.135,2.135,0,0,1,.6,1.274,5.182,5.182,0,0,1-.285,1.936q1.948.32,3.928.576a6.547,6.547,0,0,0-.911-1.817q.378-.141.757-.287a6.689,6.689,0,0,1,1.039,2.212q1.034.125,2.077.232C-193.49,982.221-193.467,982.5-193.444,982.786Zm-2.889-.337q-2.179-.281-4.321-.64a5.226,5.226,0,0,0-.342,1.819,1.935,1.935,0,0,0,.5,1.182,1.791,1.791,0,0,0,1.381.64,2.6,2.6,0,0,0,1.632-.609A2.733,2.733,0,0,0-196.333,982.449Zm-7.366-3.413a1.309,1.309,0,0,0,.382.976,2.048,2.048,0,0,0,.737.526,6.487,6.487,0,0,0,1.378.346,5.219,5.219,0,0,0,.3-1.626,1.451,1.451,0,0,0-.4-.957,1.4,1.4,0,0,0-.9-.475,1.331,1.331,0,0,0-.96.316A1.234,1.234,0,0,0-203.7,979.036Z" transform="translate(392.416 -889.026)" fill="#fff"/>
        <path id="Path_68" data-name="Path 68" d="M-190.481,964.84q-1.093,1.045-2.22,2.056l-.678-.655q2.569-2.3,4.968-4.793l.72.613q-1.05,1.091-2.134,2.147,3.489,3.138,7.006,6.261-.353.346-.71.688Q-187.018,968.006-190.481,964.84Z" transform="translate(387.412 -882.03)" fill="#fff"/>
        <path id="Path_69" data-name="Path 69" d="M-171.462,957.526l.765.562q-2.1,2.567-4.365,4.983-4-3.294-7.972-6.608,2.008-2.134,3.884-4.4l.758.567q-1.6,1.934-3.294,3.772,1.423,1.166,2.851,2.331,1.56-1.7,3.042-3.468l.746.56q-1.492,1.787-3.065,3.5,1.492,1.215,2.988,2.428Q-173.237,959.693-171.462,957.526Z" transform="translate(382.776 -877.824)" fill="#fff"/>
        <path id="Path_70" data-name="Path 70" d="M-163.821,949.942a4.864,4.864,0,0,1-2.613.283,5.9,5.9,0,0,1-2.579-1.1,5.9,5.9,0,0,1-1.813-2.056,4.511,4.511,0,0,1-.531-2.385,4.171,4.171,0,0,1,.826-2.242,4.4,4.4,0,0,1,1.352-1.235,4.134,4.134,0,0,1,1.738-.544q.13.429.256.859a3.474,3.474,0,0,0-2.52,1.444,3.317,3.317,0,0,0-.654,1.824,3.724,3.724,0,0,0,.447,1.942,4.748,4.748,0,0,0,1.484,1.657,4.8,4.8,0,0,0,2.1.877,4.029,4.029,0,0,0,2.121-.234,3.721,3.721,0,0,0,1.663-1.3,3.253,3.253,0,0,0,.536-2.933q.471-.072.942-.148a3.734,3.734,0,0,1,.11,1.851,4.474,4.474,0,0,1-.8,1.8A4.678,4.678,0,0,1-163.821,949.942Z" transform="translate(377.546 -872.717)" fill="#fff"/>
        <path id="Path_71" data-name="Path 71" d="M-161.127,925.548q4.583,2.4,9.2,4.77-.237.441-.477.88-2.119-1.113-4.233-2.23-1.39,2.521-2.917,4.932,2.059,1.222,4.123,2.438-.268.425-.54.847-4.453-2.674-8.875-5.372.25-.384.5-.771,1.98,1.186,3.967,2.367,1.514-2.39,2.894-4.89-2.04-1.081-4.074-2.167Q-161.346,925.951-161.127,925.548Z" transform="translate(374.626 -865.941)" fill="#fff"/>
        <path id="Path_72" data-name="Path 72" d="M-152.926,909.29q4.76,1.972,9.547,3.915-.161.4-.323.791a102.437,102.437,0,0,1-10.138,2.074q3.778,1.824,7.573,3.63-.224.459-.453.916-4.661-2.266-9.293-4.56.173-.343.344-.688a101.546,101.546,0,0,0,10.1-1.965q-3.868-1.614-7.719-3.248Q-153.1,909.724-152.926,909.29Z" transform="translate(370.665 -858.655)" fill="#fff"/>
        <path id="Path_73" data-name="Path 73" d="M-138.308,901.086a4.582,4.582,0,0,1-2.389,1.077,5.368,5.368,0,0,1-2.73-.363,5.755,5.755,0,0,1-2.271-1.565,5,5,0,0,1-1.153-2.292,4.833,4.833,0,0,1,.159-2.559,4.825,4.825,0,0,1,1.382-2.14,4.9,4.9,0,0,1,2.275-1.136,5.489,5.489,0,0,1,2.734.13,5.314,5.314,0,0,1,2.382,1.411A4.879,4.879,0,0,1-136.65,896a5.188,5.188,0,0,1-.153,2.774A5,5,0,0,1-138.308,901.086Zm.7-4.827a3.9,3.9,0,0,0-1.034-1.883,4.463,4.463,0,0,0-1.934-1.148,4.569,4.569,0,0,0-2.222-.139,3.882,3.882,0,0,0-1.855.891,3.813,3.813,0,0,0-1.124,1.721,3.857,3.857,0,0,0-.121,2.061,4.014,4.014,0,0,0,.957,1.854,4.689,4.689,0,0,0,1.863,1.261,4.433,4.433,0,0,0,2.226.281,3.714,3.714,0,0,0,1.933-.863,3.955,3.955,0,0,0,1.2-1.831A4.069,4.069,0,0,0-137.609,896.259Z" transform="translate(366.606 -850.903)" fill="#fff"/>
        <path id="Path_74" data-name="Path 74" d="M-142.948,883.218q.123-.479.241-.962,4.477,1.214,8.97,2.4.666-2.773,1.2-5.633l.911.194q-.634,3.427-1.461,6.73Q-138.029,884.6-142.948,883.218Z" transform="translate(364.811 -845.092)" fill="#fff"/>
        <path id="Path_75" data-name="Path 75" d="M-130,866.61a4.563,4.563,0,0,1-2.142,1.578,4.923,4.923,0,0,1-2.712.133,5.434,5.434,0,0,1-2.466-1.212,5.224,5.224,0,0,1-1.5-2.185,5.536,5.536,0,0,1-.267-2.719,5.472,5.472,0,0,1,.99-2.518,4.965,4.965,0,0,1,2.022-1.634,5.014,5.014,0,0,1,2.675-.386,4.926,4.926,0,0,1,2.544,1.037,5.125,5.125,0,0,1,1.621,2.242,6,6,0,0,1,.31,2.952A5.618,5.618,0,0,1-130,866.61Zm-.12-5.21a4.088,4.088,0,0,0-1.314-1.79,4.136,4.136,0,0,0-2.067-.844,4.171,4.171,0,0,0-2.18.278,3.921,3.921,0,0,0-1.654,1.3,4.319,4.319,0,0,0-.808,2.026,4.433,4.433,0,0,0,.222,2.19,4.194,4.194,0,0,0,1.236,1.764,4.425,4.425,0,0,0,2.019.971,4.054,4.054,0,0,0,2.209-.125,3.7,3.7,0,0,0,1.734-1.269,4.448,4.448,0,0,0,.859-2.151A4.7,4.7,0,0,0-130.125,861.4Z" transform="translate(363.109 -835.502)" fill="#fff"/>
        <path id="Path_76" data-name="Path 76" d="M-132.045,839.311q.007-.552.009-1.108,1.9.046,3.81.087a5.7,5.7,0,0,1,.927,1.9,7.428,7.428,0,0,1,.275,2.287,6.245,6.245,0,0,1-.789,2.962,4.679,4.679,0,0,1-1.957,1.89,4.644,4.644,0,0,1-2.667.455,5.137,5.137,0,0,1-2.554-.989,5.314,5.314,0,0,1-1.69-2.106,6.154,6.154,0,0,1-.519-2.828,6.526,6.526,0,0,1,.428-2.154,4.516,4.516,0,0,1,1.1-1.66q.333.358.664.718a4.533,4.533,0,0,0-1.247,3.111,5.013,5.013,0,0,0,.43,2.305,4.3,4.3,0,0,0,1.388,1.719,4.157,4.157,0,0,0,2.084.788,3.764,3.764,0,0,0,2.158-.391,3.9,3.9,0,0,0,1.585-1.537,4.974,4.974,0,0,0,.643-2.384,5.207,5.207,0,0,0-.709-2.959Q-130.361,839.369-132.045,839.311Z" transform="translate(362.237 -826.728)" fill="#fff"/>
        <path id="Path_77" data-name="Path 77" d="M-130.779,822.827q1.717-.061,3.434-.127.029.613.053,1.223-1.719.048-3.438.092-3.169,2.356-6.436,4.4,0-.594-.006-1.191,2.781-1.792,5.493-3.814-2.867-1.853-5.765-3.555-.037-.577-.079-1.157Q-134.132,820.659-130.779,822.827Z" transform="translate(362.379 -818.054)" fill="#fff"/>
      </g>
    </g>
    <g id="Group_8" data-name="Group 8" transform="translate(-507.813 657.731)">
      <ellipse id="Ellipse_5" data-name="Ellipse 5" cx="51.314" cy="5.787" rx="51.314" ry="5.787" transform="translate(13.403 95.633)" fill="#e6e6e6" opacity="0.7" style="mix-blend-mode: overlay;isolation: isolate"/>
      <path id="Path_78" data-name="Path 78" d="M-319.529,778.318v66.673a8.005,8.005,0,0,1-8.008,8h-59.169a8.005,8.005,0,0,1-8.008-8V778.318Z" transform="translate(421.838 -750.416)" fill="#4b1b5c"/>
      <path id="Path_79" data-name="Path 79" d="M-291.912,802.168l-1.311.542v49.682c0,4.417-3.892,8-8.7,8h-33.868l8.863-13.859,26.029-40.693.835-1.311,3.478-5.438,2.728-4.262.631,2.383.119.458Z" transform="translate(395.429 -757.816)" fill="#3a1548"/>
      <rect id="Rectangle_1" data-name="Rectangle 1" width="62.591" height="60.816" transform="translate(33.421 27.899)" fill="#fff"/>
      <path id="Path_80" data-name="Path 80" d="M-383.481,810.69l27.62,12.011a9.854,9.854,0,0,0,7.352,0l27.619-12.2V794.831H-383.7Z" transform="translate(416.902 -757.816)" fill="#d1d0cf" opacity="0.71"/>
      <circle id="Ellipse_6" data-name="Ellipse 6" cx="4.254" cy="4.254" r="4.254" transform="translate(60.463 92.025)" fill="#fff"/>
      <path id="Path_81" data-name="Path 81" d="M-315.2,761.206l-60.216,26.722-32.818-14.184-20.683,6.427,8.461-11.708-15.987-6.912,61.2-26.374Z" transform="translate(440.541 -731.081)" fill="#fff"/>
      <path id="Path_82" data-name="Path 82" d="M-264.67,784.6l1.678-3.863L-295,766.81a2.106,2.106,0,0,0-2.77,1.093h0a2.105,2.105,0,0,0,1.093,2.771Z" transform="translate(378.472 -745.18)" fill="#4b1b5c"/>
      <path id="Path_83" data-name="Path 83" d="M-240.926,812.683h0a2.314,2.314,0,0,0,2.359-2.266V793.494h-4.718v16.924A2.314,2.314,0,0,0-240.926,812.683Z" transform="translate(353.973 -757.217)" fill="#4b1b5c"/>
      <path id="Path_84" data-name="Path 84" d="M-316.9,754.12l-60.048-26.028a4.065,4.065,0,0,0-1.626-.337,4.135,4.135,0,0,0-1.626.331l-61.2,26.377a4.087,4.087,0,0,0-2.474,3.757,4.083,4.083,0,0,0,2.468,3.763l11.307,4.89-5.476,7.573a4.1,4.1,0,0,0-.006,4.791,4.1,4.1,0,0,0,3.328,1.707,4.161,4.161,0,0,0,1.214-.185l18.078-5.616,1.162-.36,4.5,1.945,26.923,11.632a4.063,4.063,0,0,0,1.626.337,4.138,4.138,0,0,0,1.661-.348l25.384-11.266.691-.308,5.662-2.509,1.086-.488,11.08-4.913,4.715-2.1,11.6-5.145a4.086,4.086,0,0,0,2.434-3.763A4.1,4.1,0,0,0-316.9,754.12Zm-12.7,8.67-2.8,1.243-.784.349-1.643.726-10.424,4.629-.1.046-2.782,1.231-2.881,1.277L-378.744,784.6l-28.549-12.341-4.268-1.846-1.394.435-19.292,5.994,8.461-11.708-15.988-6.911,61.2-26.377,60.042,26.028Z" transform="translate(443.867 -727.755)" fill="#4b1b5c"/>
      <circle id="Ellipse_7" data-name="Ellipse 7" cx="2.127" cy="2.127" r="2.127" transform="translate(28.951 34.057)" fill="#4b1b5c"/>
      <circle id="Ellipse_8" data-name="Ellipse 8" cx="2.127" cy="2.127" r="2.127" transform="translate(39.73 29.71)" fill="#4b1b5c"/>
      <circle id="Ellipse_9" data-name="Ellipse 9" cx="2.127" cy="2.127" r="2.127" transform="translate(49.345 25.131)" fill="#4b1b5c"/>
    </g>
  </g>
</svg>
