<svg xmlns="http://www.w3.org/2000/svg" width="31.493" height="31.493" viewBox="0 0 31.493 31.493">
  <g id="Group_17" data-name="Group 17" transform="translate(-84 96.12)">
    <path id="Path_90" data-name="Path 90" d="M92.392-29.369v-2.1a.525.525,0,0,0-.525-.525H84.525a.525.525,0,0,0-.525.525v2.1Zm0,0" transform="translate(0 -59.91)" fill="#fff"/>
    <path id="Path_91" data-name="Path 91" d="M84,24.008V41.317h8.392V24.008Zm6.294,6.819H86.1a.525.525,0,0,1-.525-.525v-4.2a.525.525,0,0,1,.525-.525h4.2a.524.524,0,0,1,.524.525v4.2a.524.524,0,0,1-.524.525Zm0,0" transform="translate(0 -112.238)" fill="#fff"/>
    <path id="Path_92" data-name="Path 92" d="M84,336v2.623a.525.525,0,0,0,.525.525h7.343a.525.525,0,0,0,.525-.525V336Zm0,0" transform="translate(0 -403.774)" fill="#fff"/>
    <rect id="Rectangle_949" data-name="Rectangle 949" width="8.445" height="1.056" transform="translate(84 -69.905)" fill="#fff"/>
    <rect id="Rectangle_950" data-name="Rectangle 950" width="6.686" height="1.056" transform="translate(93.501 -69.905)" fill="#fff"/>
    <path id="Path_93" data-name="Path 93" d="M234.815-93.894v-1.574a.525.525,0,0,0-.525-.525h-5.77a.525.525,0,0,0-.525.525v1.574Zm0,0" transform="translate(-134.555 -0.106)" fill="#fff"/>
    <rect id="Rectangle_951" data-name="Rectangle 951" width="6.686" height="19.353" transform="translate(93.501 -90.314)" fill="#fff"/>
    <path id="Path_94" data-name="Path 94" d="M228,336v2.623a.525.525,0,0,0,.525.525h5.77a.525.525,0,0,0,.525-.525V336Zm0,0" transform="translate(-134.555 -403.774)" fill="#fff"/>
    <rect id="Rectangle_952" data-name="Rectangle 952" width="6.686" height="1.583" transform="translate(93.501 -92.953)" fill="#fff"/>
    <path id="Path_95" data-name="Path 95" d="M347.8,35.912l.281,1.078,8.883-2.369-.281-1.077Zm0,0" transform="translate(-246.508 -121.148)" fill="#fff"/>
    <path id="Path_96" data-name="Path 96" d="M406.633,261.455l8.883-2.369-.562-2.156L406.07,259.3Zm0,0" transform="translate(-300.953 -329.889)" fill="#fff"/>
    <path id="Path_97" data-name="Path 97" d="M368.018,76.993l-3.01-11.54-8.883,2.369,3.01,11.539Zm0,0" transform="translate(-254.283 -150.966)" fill="#fff"/>
    <path id="Path_98" data-name="Path 98" d="M332.757-26.339l8.882-2.368-.753-2.889a.536.536,0,0,0-.645-.378l-7.868,2.1a.528.528,0,0,0-.373.64Zm0,0" transform="translate(-231.725 -59.913)" fill="#fff"/>
    <path id="Path_99" data-name="Path 99" d="M427.571,305.3l-8.883,2.369.626,2.4a.527.527,0,0,0,.247.32.507.507,0,0,0,.262.073.612.612,0,0,0,.136-.016l7.868-2.1a.529.529,0,0,0,.373-.64Zm0,0" transform="translate(-312.744 -375.084)" fill="#fff"/>
    <rect id="Rectangle_953" data-name="Rectangle 953" width="31.493" height="31.493" transform="translate(84 -96.12)" fill="none"/>
  </g>
</svg>
