<svg xmlns="http://www.w3.org/2000/svg" width="84" height="75" viewBox="0 0 84 75">
  <g id="Group_18" data-name="Group 18" transform="translate(-1725 -27)">
    <rect id="Rectangle_958" data-name="Rectangle 958" width="84" height="75" transform="translate(1725 27)" fill="#e6e6e6"/>
    <path id="Icon_awesome-user-alt" data-name="Icon awesome-user-alt" d="M28.477,32.036A16.018,16.018,0,1,0,12.458,16.018,16.022,16.022,0,0,0,28.477,32.036ZM42.715,35.6H36.586a19.363,19.363,0,0,1-16.218,0H14.238A14.237,14.237,0,0,0,0,49.834v1.78a5.341,5.341,0,0,0,5.339,5.339H51.614a5.341,5.341,0,0,0,5.339-5.339v-1.78A14.237,14.237,0,0,0,42.715,35.6Z" transform="translate(1738.686 45.047)" fill="#f9f9f9"/>
  </g>
</svg>
